<?xml version="1.0" encoding="UTF-8"?>
<svg version="1.1" xmlns="http://www.w3.org/2000/svg" width="725" height="725">
<path d="M0 0 C239.25 0 478.5 0 725 0 C725 239.25 725 478.5 725 725 C485.75 725 246.5 725 0 725 C0 485.75 0 246.5 0 0 Z " fill="#002018" transform="translate(0,0)"/>
<path d="M0 0 C0.6609668 0.24669434 1.32193359 0.49338867 2.00292969 0.74755859 C27.19356949 10.36676915 46.40785411 28.7008419 58 53 C59.60047404 56.94693174 60.88987782 60.89070796 62 65 C62.22300781 65.76054687 62.44601562 66.52109375 62.67578125 67.3046875 C63.77785837 71.27816283 64.20581206 74.88375883 64 79 C64.928125 79.0825 65.85625 79.165 66.8125 79.25 C84.04260676 81.8448956 98.22864985 93.58740666 108.390625 107.203125 C113.10258447 114.42812952 115.9223145 121.654043 118 130 C118.1743457 130.61560791 118.34869141 131.23121582 118.52832031 131.86547852 C122.37753075 149.28455037 118.07292943 168.01623273 109 183 C106.49465194 186.48466817 103.85290406 189.79428477 101 193 C100.51660156 193.5671875 100.03320312 194.134375 99.53515625 194.71875 C96.55782201 197.20364983 92.75223812 197.23698346 89 197 C86.07856583 195.23496686 84.52076183 194.04152365 83 191 C82.52434383 186.66682452 82.61214439 184.59872857 85.01171875 180.89453125 C85.89131526 179.85661069 86.78387812 178.82957256 87.6875 177.8125 C98.41603187 164.89254412 100.22635094 151.28674243 99 135 C97.06382275 125.24166665 91.33880029 116.60492026 84 110 C83.113125 109.175 82.22625 108.35 81.3125 107.5 C73.50406014 101.12042413 64.0463976 98.04947763 54.11328125 97.34375 C51.70368282 96.95180053 50.07059256 96.2903061 48 95 C45.60059725 91.40089588 45.52978702 88.42497653 45.1875 84.25 C43.09366713 63.57229608 33.47071005 45.38403907 17.5625 31.90625 C-0.80631723 18.24164206 -21.47321124 13.82858362 -44.078125 16.390625 C-58.2999442 18.7508418 -70.96265567 25.89837879 -82 35 C-82.63035156 35.51691406 -83.26070313 36.03382813 -83.91015625 36.56640625 C-97.90418678 49.28535427 -105.21763037 69.19141448 -106.4375 87.625 C-106.69933704 90.94705744 -106.85075988 91.80261791 -108.9375 94.5625 C-112.46687832 97.02236974 -114.97898133 97.21322017 -119.25 97.625 C-130.42519257 99.17392299 -141.59386895 104.25020802 -149 113 C-158.54600023 126.21887146 -161.52957862 137.94663947 -160 154 C-158.12905145 164.44612942 -153.26991858 173.48973965 -146.0625 181.25 C-144 184 -144 184 -143.4375 187.5625 C-144.11714131 191.71586356 -144.74934832 193.30433763 -148 196 C-151.12536563 197.21576109 -153.68165255 197.5109376 -157 197 C-167.6537668 191.69344822 -174.20492694 176.58396395 -178.125 166.03515625 C-183.32172007 148.00903349 -180.71843457 127.85451011 -172.15234375 111.46484375 C-168.66421331 105.5375076 -163.89793842 100.76979468 -159 96 C-158.319375 95.32195312 -157.63875 94.64390625 -156.9375 93.9453125 C-148.98754449 86.49222921 -138.06145287 79.49355834 -126.9375 78.8125 C-125.9784375 78.9053125 -125.9784375 78.9053125 -125 79 C-125.04125 77.99839844 -125.0825 76.99679687 -125.125 75.96484375 C-124.47358911 55.30290462 -109.97109331 33.97808907 -95.515625 20.1796875 C-69.66937263 -2.21504669 -33.01849461 -12.40938988 0 0 Z " fill="#00D07D" transform="translate(393,217)"/>
<path d="M0 0 C0.64428955 -0.0065712 1.2885791 -0.0131424 1.95239258 -0.01991272 C4.08243941 -0.0396065 6.21241586 -0.0512995 8.3425293 -0.0612793 C9.43594163 -0.06739259 9.43594163 -0.06739259 10.5514431 -0.07362938 C14.40978078 -0.09447348 18.26808307 -0.1087823 22.12646484 -0.11816406 C26.10447933 -0.12922481 30.08193388 -0.16362487 34.05975056 -0.20333576 C37.12504594 -0.22952324 40.1902083 -0.23785774 43.2556057 -0.24144554 C44.72158782 -0.24630609 46.18756421 -0.25790504 47.65343666 -0.27648354 C49.7095092 -0.30092244 51.76413815 -0.29990258 53.8203125 -0.29296875 C54.98818802 -0.29883499 56.15606354 -0.30470123 57.35932922 -0.31074524 C61.31516071 0.28385999 63.49513861 1.70759767 66.60424805 4.17700195 C68.18322858 7.33496302 68.42352976 10.78370831 67.60424805 14.17700195 C65.95310167 16.71677132 65.19584857 17.75445221 62.60424805 19.17700195 C58.15488471 19.80835147 53.77417733 19.64623025 49.29174805 19.48950195 C48.07422852 19.46694336 46.85670898 19.44438477 45.60229492 19.42114258 C42.60169322 19.36230725 39.60360008 19.28014336 36.60424805 19.17700195 C36.59469583 40.08256925 36.61926648 60.98784803 36.68452644 81.89332104 C36.71403078 91.5999991 36.73234353 101.306458 36.72436523 111.01318359 C36.71744014 119.47301448 36.73145687 127.93250625 36.77068412 136.3922537 C36.79072463 140.87227287 36.80023508 145.35175937 36.78467178 149.83180809 C36.77035402 154.04853233 36.78403261 158.26423817 36.81920052 162.48083115 C36.82717019 164.02838004 36.82490476 165.57602068 36.81163979 167.12353325 C36.40846369 174.99355344 36.40846369 174.99355344 38.92766953 182.1397953 C40.68393076 183.67960805 40.68393076 183.67960805 43.60424805 185.17700195 C47.43942672 190.59915112 48.22872738 195.58394128 47.60424805 202.17700195 C46.41969794 208.39588999 43.39786793 211.80436394 38.6394043 215.8293457 C33.42512865 219.28217699 26.61103378 218.86239161 20.60424805 218.17700195 C14.50197557 215.80498959 10.56855329 211.61453613 7.35424805 205.98950195 C5.55824039 199.25447323 5.99189086 193.27228684 9.14331055 187.0637207 C10.60424805 185.17700195 10.60424805 185.17700195 13.64724731 183.51826477 C16.09415059 181.4736016 16.57501966 180.33389645 17.16796494 177.15103722 C17.3865657 173.03359606 17.41252569 168.95154854 17.37719727 164.83007812 C17.3853698 163.24313861 17.39617321 161.65621079 17.40940857 160.06930542 C17.43785074 155.76577763 17.42949098 151.46301483 17.41454077 147.15944839 C17.40516408 142.66036085 17.42960828 138.16146044 17.45046997 133.66242981 C17.48482338 125.14498519 17.48874572 116.62780901 17.48174489 108.11030895 C17.47525493 98.41259335 17.50267442 88.71506649 17.5329473 79.01740682 C17.59445472 59.07058432 17.61336223 39.12390898 17.60424805 19.17700195 C16.84281494 19.20318604 16.08138184 19.22937012 15.296875 19.25634766 C11.8370437 19.3604721 8.3775422 19.42537925 4.91674805 19.48950195 C3.71856445 19.53139648 2.52038086 19.57329102 1.28588867 19.61645508 C-8.63263387 19.75459606 -8.63263387 19.75459606 -11.68847656 16.78637695 C-13.82691437 13.51801955 -14.06840188 11.89080518 -13.82543945 8.1105957 C-13.14192825 5.03479531 -11.65212072 3.30443536 -9.39575195 1.17700195 C-6.05846019 0.06457137 -3.51699943 0.02970606 0 0 Z " fill="#00D17E" transform="translate(335.395751953125,293.822998046875)"/>
<path d="M0 0 C1.98254143 -0.0165428 3.96502362 -0.0438107 5.94726562 -0.08203125 C8.80890781 -0.13691598 11.6691517 -0.15869282 14.53125 -0.17333984 C15.41270691 -0.19600922 16.29416382 -0.21867859 17.20233154 -0.24203491 C21.51888011 -0.22728327 24.3519857 -0.01299741 27.77832031 2.7578125 C31.34924305 6.52680431 31.35823899 8.27702952 31.36035156 13.37280273 C31.36606171 15.27036064 31.36606171 15.27036064 31.37188721 17.20625305 C31.37208107 17.88440882 31.37227493 18.56256458 31.37247467 19.26127052 C31.37588928 22.11207895 31.39725186 24.96265912 31.41770554 27.81338787 C31.45572646 33.12195994 31.48699159 38.43028993 31.48486328 43.73901367 C31.48407546 47.43100609 31.50746953 51.12216526 31.5467453 54.81394005 C31.55719787 56.21926819 31.55873466 57.62469259 31.55109406 59.03003883 C31.54145503 60.99978314 31.56545195 62.96960445 31.59082031 64.93920898 C31.59628876 66.61893547 31.59628876 66.61893547 31.60186768 68.33259583 C32.43256058 72.29558135 34.22128958 73.73597118 37.234375 76.35009766 C41.53759403 81.11852956 41.84731188 85.18709552 41.6171875 91.37744141 C40.86573341 97.21271247 38.65124396 101.35753473 34.234375 105.22509766 C27.95038146 109.67625975 22.9076295 110.30556067 15.234375 109.35009766 C9.53528161 107.17679363 5.73129673 103.22459462 2.234375 98.35009766 C0.3142846 92.58982646 0.00425813 85.53364011 2.2109375 79.82275391 C3.9563103 76.9477073 5.40861628 74.86332326 8.29302979 73.07060242 C10.43890963 71.50773129 10.43890963 71.50773129 10.75335693 69.01521301 C10.7666806 67.63954414 10.7666806 67.63954414 10.78027344 66.23608398 C10.79999207 65.19523148 10.81971069 64.15437897 10.84002686 63.08198547 C10.84125549 61.96003281 10.84248413 60.83808014 10.84375 59.68212891 C10.86028625 58.53217941 10.87682251 57.38222992 10.89385986 56.19743347 C10.9425032 52.51910143 10.96374787 48.84118328 10.984375 45.16259766 C11.01252088 42.67104019 11.04244634 40.17950214 11.07421875 37.68798828 C11.14826658 31.57543363 11.19981323 25.46299616 11.234375 19.35009766 C9.95590698 19.38151855 9.95590698 19.38151855 8.65161133 19.41357422 C5.47408067 19.48195009 2.29692629 19.53199503 -0.88110352 19.56982422 C-2.25362523 19.58987756 -3.62606217 19.61712794 -4.99829102 19.65185547 C-6.97634544 19.70064317 -8.95503619 19.72098642 -10.93359375 19.74072266 C-12.12235107 19.76166992 -13.3111084 19.78261719 -14.53588867 19.80419922 C-18.40136381 19.26071265 -20.01212981 18.05857744 -22.765625 15.35009766 C-24.31586964 12.24960837 -24.05554515 9.77115548 -23.765625 6.35009766 C-18.24047847 -2.12179369 -9.12182227 0.0558048 0 0 Z " fill="#00CF7C" transform="translate(286.765625,352.64990234375)"/>
<path d="M0 0 C0.89297791 -0.00807175 1.78595581 -0.01614349 2.70599365 -0.02445984 C4.59906063 -0.03830445 6.49215262 -0.04902491 8.38525391 -0.05688477 C11.2716451 -0.07406855 14.15688222 -0.11794717 17.04296875 -0.16210938 C18.88280408 -0.17223895 20.72264915 -0.18075422 22.5625 -0.1875 C23.42208313 -0.20500809 24.28166626 -0.22251617 25.16729736 -0.24055481 C30.74977948 -0.22048959 33.75833794 0.59455092 38.046875 4.23828125 C39.59711964 7.33877053 39.33679515 9.81722343 39.046875 13.23828125 C36.91008215 16.62767681 35.8693983 17.96410682 32.046875 19.23828125 C29.90892975 19.32166165 27.76845491 19.34561872 25.62890625 19.3359375 C24.37529297 19.33271484 23.12167969 19.32949219 21.83007812 19.32617188 C20.51974609 19.31779297 19.20941406 19.30941406 17.859375 19.30078125 C16.52409019 19.29576442 15.18880359 19.29120184 13.85351562 19.28710938 C10.58459027 19.2753082 7.31575509 19.25884422 4.046875 19.23828125 C4.06313675 26.57112164 4.11787374 33.90294886 4.19946289 41.23535156 C4.22267039 43.7300764 4.23704501 46.2248996 4.24243164 48.71972656 C4.25170057 52.30466202 4.29264968 55.88804442 4.33984375 59.47265625 C4.3359111 60.58944763 4.33197845 61.70623901 4.32792664 62.85687256 C4.27774523 68.96319439 4.27774523 68.96319439 7.50585938 73.86401367 C8.34439453 74.31752197 9.18292969 74.77103027 10.046875 75.23828125 C13.88694194 80.1786539 14.68478399 85.41927167 14.4296875 91.55859375 C13.62277592 97.2069748 11.33528217 101.36908819 7.046875 105.11328125 C0.76698759 109.56153483 -4.28386899 110.20185444 -11.953125 109.23828125 C-17.90018534 106.91700931 -21.73641984 102.8736777 -25.02734375 97.4765625 C-27.23703897 92.13413482 -27.05135122 85.06479176 -24.97265625 79.71484375 C-23.23406598 76.83680817 -21.8184404 74.74842582 -18.88951111 73.02168274 C-16.68702407 71.35504983 -16.68702407 71.35504983 -16.4677887 68.48820496 C-16.47398727 67.37601089 -16.48018585 66.26381683 -16.48657227 65.11791992 C-16.4829921 63.85618454 -16.47941193 62.59444916 -16.47572327 61.29447937 C-16.48302019 60.62044256 -16.49031712 59.94640575 -16.49783516 59.25194359 C-16.51973373 57.13669192 -16.51600201 55.02286963 -16.50535583 52.907547 C-16.48368847 47.65270358 -16.5009995 42.39817638 -16.52685547 37.14337158 C-16.54830129 32.70539614 -16.55013684 28.26833812 -16.52393913 23.83037758 C-16.51960197 21.75262818 -16.54418698 19.67649046 -16.56947327 17.59892273 C-16.51376775 7.08066364 -16.51376775 7.08066364 -13.54272461 3.39575195 C-9.14238944 -0.27029518 -5.53049455 0.04708347 0 0 Z " fill="#00CF7C" transform="translate(422.953125,352.76171875)"/>
<path d="M0 0 C0.33 0 0.66 0 1 0 C1 7.26 1 14.52 1 22 C-6.26 22 -13.52 22 -21 22 C-18 20 -18 20 -15.73046875 18.80859375 C-7.37664438 14.30445803 -3.33532181 8.78610237 0 0 Z " fill="#000000" transform="translate(724,703)"/>
<path d="M0 0 C2 3 2 3 3.19140625 5.26953125 C7.69554197 13.62335562 13.21389763 17.66467819 22 21 C22 21.33 22 21.66 22 22 C14.74 22 7.48 22 0 22 C0 14.74 0 7.48 0 0 Z " fill="#000000" transform="translate(0,703)"/>
<path d="M0 0 C7.26 0 14.52 0 22 0 C22 7.26 22 14.52 22 22 C20 19 20 19 18.80859375 16.73046875 C14.30445803 8.37664438 8.78610237 4.33532181 0 1 C0 0.67 0 0.34 0 0 Z " fill="#000000" transform="translate(703,0)"/>
<path d="M0 0 C7.26 0 14.52 0 22 0 C19 2 19 2 16.73046875 3.19140625 C8.37664438 7.69554197 4.33532181 13.21389763 1 22 C0.67 22 0.34 22 0 22 C0 14.74 0 7.48 0 0 Z " fill="#000000" transform="translate(0,0)"/>
</svg>
